<svg width="83" height="24" viewBox="0 0 83 24" fill="none" xmlns="http://www.w3.org/2000/svg">
<g clip-path="url(#clip0_810_12)">
<path d="M22 12C22 13.9778 21.4135 15.9112 20.3147 17.5557C19.2159 19.2002 17.6541 20.4819 15.8268 21.2388C13.9996 21.9957 11.9889 22.1937 10.0491 21.8079C8.10929 21.422 6.32746 20.4696 4.92894 19.0711C3.53041 17.6725 2.578 15.8907 2.19215 13.9509C1.8063 12.0111 2.00433 10.0004 2.76121 8.17317C3.51809 6.3459 4.79981 4.78412 6.4443 3.6853C8.08879 2.58649 10.0222 2 12 2" stroke="#666666" stroke-width="3" stroke-linecap="round" stroke-linejoin="round"/>
<path d="M22 2L12 12" stroke="#666666" stroke-width="3" stroke-linecap="round" stroke-linejoin="round"/>
<path d="M16 2H22V8" stroke="#666666" stroke-width="3" stroke-linecap="round" stroke-linejoin="round"/>
</g>
<path d="M29.9 19C29.7533 19 29.6333 18.9533 29.54 18.86C29.4467 18.7667 29.4 18.6467 29.4 18.5V5.5C29.4 5.35333 29.4467 5.23333 29.54 5.14C29.6333 5.04667 29.7533 5 29.9 5H32.54C32.6733 5 32.7867 5.04667 32.88 5.14C32.9867 5.23333 33.04 5.35333 33.04 5.5V15.98H39.08C39.2267 15.98 39.3467 16.0333 39.44 16.14C39.5467 16.2333 39.6 16.3533 39.6 16.5V18.5C39.6 18.6467 39.5467 18.7667 39.44 18.86C39.3467 18.9533 39.2267 19 39.08 19H29.9ZM46.8973 19.2C45.6707 19.2 44.604 19 43.6973 18.6C42.7907 18.2 42.084 17.6 41.5773 16.8C41.0707 15.9867 40.7907 14.9733 40.7373 13.76C40.724 13.1867 40.7173 12.6133 40.7173 12.04C40.7173 11.4667 40.724 10.8867 40.7373 10.3C40.7907 9.1 41.0707 8.09333 41.5773 7.28C42.0973 6.45333 42.8107 5.83333 43.7173 5.42C44.624 5.00667 45.684 4.8 46.8973 4.8C48.0973 4.8 49.1507 5.00667 50.0573 5.42C50.9773 5.83333 51.6973 6.45333 52.2173 7.28C52.7373 8.09333 53.0173 9.1 53.0573 10.3C53.084 10.8867 53.0973 11.4667 53.0973 12.04C53.0973 12.6133 53.084 13.1867 53.0573 13.76C53.004 14.9733 52.724 15.9867 52.2173 16.8C51.7107 17.6 51.004 18.2 50.0973 18.6C49.1907 19 48.124 19.2 46.8973 19.2ZM46.8973 16.32C47.604 16.32 48.1773 16.1067 48.6173 15.68C49.0707 15.2533 49.3107 14.5733 49.3373 13.64C49.364 13.0533 49.3773 12.5 49.3773 11.98C49.3773 11.46 49.364 10.92 49.3373 10.36C49.3107 9.73333 49.1907 9.22667 48.9773 8.84C48.7773 8.44 48.4973 8.14667 48.1373 7.96C47.7773 7.77333 47.364 7.68 46.8973 7.68C46.444 7.68 46.0373 7.77333 45.6773 7.96C45.3173 8.14667 45.0307 8.44 44.8173 8.84C44.604 9.22667 44.484 9.73333 44.4573 10.36C44.444 10.92 44.4373 11.46 44.4373 11.98C44.4373 12.5 44.444 13.0533 44.4573 13.64C44.4973 14.5733 44.7373 15.2533 45.1773 15.68C45.6173 16.1067 46.1907 16.32 46.8973 16.32ZM61.1956 19.2C59.929 19.2 58.8356 18.9933 57.9156 18.58C57.009 18.1533 56.3023 17.54 55.7956 16.74C55.3023 15.9267 55.029 14.94 54.9756 13.78C54.9623 13.2067 54.9556 12.6 54.9556 11.96C54.9556 11.3067 54.9623 10.6867 54.9756 10.1C55.029 8.96667 55.309 8.00667 55.8156 7.22C56.3223 6.43333 57.0356 5.83333 57.9556 5.42C58.8756 5.00667 59.9556 4.8 61.1956 4.8C62.1956 4.8 63.0823 4.92667 63.8556 5.18C64.629 5.42 65.2756 5.74667 65.7956 6.16C66.329 6.57333 66.729 7.02667 66.9956 7.52C67.2756 8.01333 67.4223 8.5 67.4356 8.98C67.449 9.1 67.409 9.2 67.3156 9.28C67.2356 9.36 67.1356 9.4 67.0156 9.4H64.0956C63.949 9.4 63.8356 9.38 63.7556 9.34C63.689 9.28667 63.629 9.21333 63.5756 9.12C63.4823 8.92 63.3423 8.71333 63.1556 8.5C62.9823 8.27333 62.7356 8.08 62.4156 7.92C62.109 7.76 61.7023 7.68 61.1956 7.68C60.4356 7.68 59.8356 7.88 59.3956 8.28C58.969 8.68 58.7356 9.32 58.6956 10.2C58.6556 11.3467 58.6556 12.5067 58.6956 13.68C58.7356 14.6133 58.9823 15.2867 59.4356 15.7C59.889 16.1133 60.489 16.32 61.2356 16.32C61.7423 16.32 62.189 16.2333 62.5756 16.06C62.9756 15.8867 63.289 15.62 63.5156 15.26C63.7423 14.8867 63.8556 14.4133 63.8556 13.84V13.46H61.9756C61.829 13.46 61.7023 13.4133 61.5956 13.32C61.5023 13.2133 61.4556 13.0867 61.4556 12.94V11.46C61.4556 11.3133 61.5023 11.1933 61.5956 11.1C61.7023 10.9933 61.829 10.94 61.9756 10.94H67.0156C67.1623 10.94 67.2823 10.9933 67.3756 11.1C67.469 11.1933 67.5156 11.3133 67.5156 11.46V13.74C67.5156 14.8867 67.2556 15.8667 66.7356 16.68C66.2156 17.4933 65.4756 18.12 64.5156 18.56C63.569 18.9867 62.4623 19.2 61.1956 19.2ZM75.5302 19.2C74.3035 19.2 73.2368 19 72.3302 18.6C71.4235 18.2 70.7168 17.6 70.2102 16.8C69.7035 15.9867 69.4235 14.9733 69.3702 13.76C69.3568 13.1867 69.3502 12.6133 69.3502 12.04C69.3502 11.4667 69.3568 10.8867 69.3702 10.3C69.4235 9.1 69.7035 8.09333 70.2102 7.28C70.7302 6.45333 71.4435 5.83333 72.3502 5.42C73.2568 5.00667 74.3168 4.8 75.5302 4.8C76.7302 4.8 77.7835 5.00667 78.6902 5.42C79.6102 5.83333 80.3302 6.45333 80.8502 7.28C81.3702 8.09333 81.6502 9.1 81.6902 10.3C81.7168 10.8867 81.7302 11.4667 81.7302 12.04C81.7302 12.6133 81.7168 13.1867 81.6902 13.76C81.6368 14.9733 81.3568 15.9867 80.8502 16.8C80.3435 17.6 79.6368 18.2 78.7302 18.6C77.8235 19 76.7568 19.2 75.5302 19.2ZM75.5302 16.32C76.2368 16.32 76.8102 16.1067 77.2502 15.68C77.7035 15.2533 77.9435 14.5733 77.9702 13.64C77.9968 13.0533 78.0102 12.5 78.0102 11.98C78.0102 11.46 77.9968 10.92 77.9702 10.36C77.9435 9.73333 77.8235 9.22667 77.6102 8.84C77.4102 8.44 77.1302 8.14667 76.7702 7.96C76.4102 7.77333 75.9968 7.68 75.5302 7.68C75.0768 7.68 74.6702 7.77333 74.3102 7.96C73.9502 8.14667 73.6635 8.44 73.4502 8.84C73.2368 9.22667 73.1168 9.73333 73.0902 10.36C73.0768 10.92 73.0702 11.46 73.0702 11.98C73.0702 12.5 73.0768 13.0533 73.0902 13.64C73.1302 14.5733 73.3702 15.2533 73.8102 15.68C74.2502 16.1067 74.8235 16.32 75.5302 16.32Z" fill="#666666"/>
<defs>
<clipPath id="clip0_810_12">
<rect width="24" height="24" fill="white"/>
</clipPath>
</defs>
</svg>
